<svg width="74" height="22" viewBox="0 0 74 22" fill="none" xmlns="http://www.w3.org/2000/svg">
<path d="M0.305398 13.5199L0.808239 10.5199L13.669 5.23579L13.1065 8.6875L4.34517 11.9858L4.48153 11.8068L4.40483 12.233L4.31108 12.054L12.0071 15.3523L11.4276 18.804L0.305398 13.5199ZM25.6349 0.727272L16.5668 21.625H13.4389L22.5071 0.727272H25.6349ZM30.6911 19H24.4183L27.3161 1.54545H33.4695C35.2251 1.54545 36.6825 1.90341 37.8416 2.61932C39.0064 3.33523 39.8274 4.3608 40.3047 5.69602C40.782 7.02557 40.8672 8.61364 40.5604 10.4602C40.2649 12.2443 39.6768 13.7756 38.7962 15.054C37.9155 16.3267 36.7876 17.304 35.4126 17.9858C34.0376 18.6619 32.4638 19 30.6911 19ZM28.6371 15.8381H30.9041C32.0007 15.8381 32.9609 15.6335 33.7848 15.2244C34.6143 14.8153 35.2933 14.1847 35.8217 13.3324C36.3558 12.4801 36.7337 11.3892 36.9553 10.0597C37.1655 8.7983 37.1513 7.77557 36.9126 6.99148C36.6797 6.2017 36.228 5.625 35.5575 5.26136C34.8871 4.89205 34.0064 4.70739 32.9155 4.70739H30.4865L28.6371 15.8381ZM48.152 19H41.8793L44.777 1.54545H50.9304C52.6861 1.54545 54.1435 1.90341 55.3026 2.61932C56.4673 3.33523 57.2884 4.3608 57.7656 5.69602C58.2429 7.02557 58.3281 8.61364 58.0213 10.4602C57.7259 12.2443 57.1378 13.7756 56.2571 15.054C55.3764 16.3267 54.2486 17.304 52.8736 17.9858C51.4986 18.6619 49.9247 19 48.152 19ZM46.098 15.8381H48.3651C49.4616 15.8381 50.4219 15.6335 51.2457 15.2244C52.0753 14.8153 52.7543 14.1847 53.2827 13.3324C53.8168 12.4801 54.1946 11.3892 54.4162 10.0597C54.6264 8.7983 54.6122 7.77557 54.3736 6.99148C54.1406 6.2017 53.6889 5.625 53.0185 5.26136C52.348 4.89205 51.4673 4.70739 50.3764 4.70739H47.9474L46.098 15.8381ZM73.3345 11.8835L60.4567 17.1676L61.0362 13.7159L69.772 10.4176L69.6442 10.5966L69.7209 10.1705L69.8061 10.3494L62.1357 7.05114L62.6982 3.59943L73.8374 8.88352L73.3345 11.8835Z" fill="#232E35"/>
</svg>
